<svg xmlns="http://www.w3.org/2000/svg" width="60" height="60" viewBox="0 0 60 60">
    <g fill="none" fill-rule="evenodd">
        <path d="M0 0h60v60H0z"/>
        <circle cx="30" cy="30" r="29" stroke="#FFF" stroke-width="2"/>
        <path fill="#FFF" d="M30 17.703c4.005 0 4.48.015 6.061.087 1.463.067 2.257.311 2.786.517.7.272 1.2.597 1.724 1.122.525.525.85 1.024 1.122 1.724.206.529.45 1.323.517 2.786.072 1.581.087 2.056.087 6.061s-.015 4.48-.087 6.061c-.067 1.463-.311 2.257-.517 2.786-.272.7-.597 1.2-1.122 1.724a4.647 4.647 0 0 1-1.724 1.122c-.529.206-1.323.45-2.786.517-1.581.072-2.056.087-6.061.087s-4.48-.015-6.061-.087c-1.463-.067-2.257-.311-2.786-.517-.7-.272-1.2-.597-1.724-1.122a4.647 4.647 0 0 1-1.122-1.724c-.206-.529-.45-1.323-.517-2.786-.072-1.581-.087-2.056-.087-6.061s.015-4.48.087-6.061c.067-1.463.311-2.257.517-2.786.272-.7.597-1.2 1.122-1.724a4.648 4.648 0 0 1 1.724-1.122c.529-.206 1.323-.45 2.786-.517 1.581-.072 2.056-.087 6.061-.087M30 15c4.074 0 4.585.017 6.184.09 1.597.073 2.687.327 3.642.698a7.353 7.353 0 0 1 2.656 1.73 7.353 7.353 0 0 1 1.73 2.656c.371.955.625 2.045.698 3.642.073 1.6.09 2.11.09 6.184s-.017 4.585-.09 6.184c-.073 1.597-.327 2.687-.698 3.642a7.353 7.353 0 0 1-1.73 2.656 7.353 7.353 0 0 1-2.656 1.73c-.955.371-2.045.625-3.642.698-1.6.073-2.11.09-6.184.09s-4.585-.017-6.184-.09c-1.597-.073-2.687-.327-3.642-.697a7.353 7.353 0 0 1-2.656-1.73 7.353 7.353 0 0 1-1.73-2.657c-.371-.955-.625-2.045-.698-3.642-.073-1.6-.09-2.11-.09-6.184s.017-4.585.09-6.184c.073-1.597.327-2.687.697-3.642a7.353 7.353 0 0 1 1.73-2.656 7.353 7.353 0 0 1 2.657-1.73c.955-.371 2.045-.625 3.642-.698 1.6-.073 2.11-.09 6.184-.09zm.03 7.321a7.708 7.708 0 1 0 0 15.417 7.708 7.708 0 0 0 0-15.417zm0 12.712a5.004 5.004 0 1 1 0-10.007 5.004 5.004 0 0 1 0 10.007zm9.732-13.069a1.786 1.786 0 1 0-3.571 0 1.786 1.786 0 0 0 3.57 0z"/>
    </g>
</svg>
