<?xml version="1.0" encoding="utf-8" ?>
<svg xmlns="http://www.w3.org/2000/svg" xmlns:xlink="http://www.w3.org/1999/xlink" width="540" height="572">
	<defs>
		<clipPath id="clip_0">
			<rect x="106" y="-7082" width="1280" height="25684" clip-rule="evenodd"/>
		</clipPath>
	</defs>
	<g clip-path="url(#clip_0)">
		<path fill="#ff9c0050" stroke="none" transform="scale(4 4)" d="M47.2386 141.284C46.869 140.903 46.4994 140.331 46.3146 139.568L0.112312 5.33867C-0.0725021 4.576 -0.257309 3.62267 -0.0725021 3.05067Q-0.0725021 1.90667 1.03636 1.33467C1.77559 0.953333 2.69963 0.572 3.9933 0.381333C5.28696 0.190667 6.95024 0 9.16795 0C10.8312 0 12.3097 0 13.4186 0.190667C14.5274 0.381333 15.4515 0.381333 16.1907 0.762667C16.9299 1.144 17.4844 1.52533 17.854 1.90667C18.2236 2.288 18.5932 2.86 18.778 3.62267L64.9803 137.661C65.3499 138.424 65.5347 139.377 65.3499 139.949C65.3499 140.712 64.9803 141.284 64.241 141.665C63.5018 142.047 62.3929 142.428 61.0993 142.619C59.8056 142.809 57.9575 143 55.9246 143C54.2613 143 52.7829 143 51.674 142.809C50.5652 142.619 49.6411 142.428 48.9019 142.237C48.1626 142.047 47.6082 141.665 47.2386 141.284ZM116.667 141.284C116.298 140.903 115.928 140.331 115.743 139.568L69.5409 5.33867C69.3561 4.576 69.1713 3.62267 69.3561 3.05067Q69.3561 1.90667 70.4649 1.33467C71.2042 0.953333 72.1282 0.572 73.4219 0.381333C74.7155 0.190667 76.3788 0 78.5965 0C80.2598 0 81.7383 0 82.8471 0.190667C83.956 0.381333 84.88 0.572 85.6193 0.762667C86.3585 1.144 86.9129 1.52533 87.2825 1.90667C87.6522 2.288 88.0218 2.86 88.2066 3.62267L134.409 137.661C134.778 138.424 134.963 139.377 134.778 139.949C134.778 140.712 134.409 141.284 133.67 141.665C132.93 142.047 131.822 142.428 130.528 142.619C129.234 142.809 127.386 143 125.353 143C123.69 143 122.211 143 121.103 142.809C119.994 142.619 119.07 142.428 118.33 142.237C117.591 142.047 117.037 141.665 116.667 141.284Z" fill-rule="evenodd"/>
	</g>
</svg>
