<?xml version="1.0" encoding="utf-8" ?>
<svg xmlns="http://www.w3.org/2000/svg" xmlns:xlink="http://www.w3.org/1999/xlink" width="1256" height="400">
	<defs>
		<clipPath id="clip_0">
			<rect x="-1116" y="-1500" width="5760" height="4096" clip-rule="evenodd"/>
		</clipPath>
	</defs>
	<g clip-path="url(#clip_0)">
		<path fill="rgb(255,255,255)" stroke="none" transform="matrix(4 0 0 4 1.20117 1.58658)" d="M13.6153 96.7811C13.4836 97.3099 13.2202 97.7066 12.9568 97.971C12.6935 98.2354 12.2984 98.4999 11.7717 98.6321C11.2449 98.7643 10.5865 98.8965 9.79638 99.0287C9.00627 99.1609 7.95279 99.1609 6.76762 99.1609C5.31908 99.1609 4.00222 99.0287 3.08043 98.8965C2.15863 98.7643 1.36852 98.4999 0.841774 98.2354C0.315032 97.971 0.0516608 97.5744 0.0516608 97.0455C-0.0800246 96.6489 0.0516608 95.9878 0.315032 95.4589L33.2364 2.51208C33.3681 1.98322 33.6315 1.58658 33.8948 1.32215C34.1582 1.05772 34.5532 0.793288 35.08 0.528858C35.6067 0.264429 36.2652 0.264429 37.0553 0.132215C37.8454 0 38.8989 0 40.084 0C41.6643 0 42.8494 0.132215 43.7712 0.264429C44.693 0.396644 45.3515 0.661073 45.8782 0.925502C46.4049 1.18993 46.6683 1.58658 46.6683 2.11543C46.8 2.51208 46.6683 3.17315 46.5366 3.70201L13.6153 96.7811C13.4836 97.3099 13.2202 97.7066 12.9568 97.971C12.6935 98.2354 12.2984 98.4999 11.7717 98.6321C11.2449 98.7643 10.5865 98.8965 9.79638 99.0287C9.00627 99.1609 7.95279 99.1609 6.76762 99.1609C5.31908 99.1609 4.00222 99.0287 3.08043 98.8965C2.15863 98.7643 1.36852 98.4999 0.841774 98.2354C0.315032 97.971 0.0516608 97.5744 0.0516608 97.0455C-0.0800246 96.6489 0.0516608 95.9878 0.315032 95.4589L33.2364 2.51208C33.3681 1.98322 33.6315 1.58658 33.8948 1.32215C34.1582 1.05772 34.5532 0.793288 35.08 0.528858C35.6067 0.264429 36.2652 0.264429 37.0553 0.132215C37.8454 0 38.8989 0 40.084 0C41.6643 0 42.8494 0.132215 43.7712 0.264429C44.693 0.396644 45.3515 0.661073 45.8782 0.925502C46.4049 1.18993 46.6683 1.58658 46.6683 2.11543C46.8 2.51208 46.6683 3.17315 46.5366 3.70201L13.6153 96.7811Z"/>
	</g>
	<defs>
		<clipPath id="clip_1">
			<rect x="-1116" y="-1500" width="5760" height="4096" clip-rule="evenodd"/>
		</clipPath>
	</defs>
	<g clip-path="url(#clip_1)">
		<path fill="rgb(255,255,255)" stroke="none" transform="matrix(4 0 0 4 195.568 1.58658)" d="M13.6153 96.7811C13.4836 97.3099 13.2202 97.7066 12.9568 97.971C12.6935 98.2354 12.2984 98.4999 11.7717 98.6321C11.2449 98.7643 10.5865 98.8965 9.79638 99.0287C9.00627 99.1609 7.95279 99.1609 6.76762 99.1609C5.31908 99.1609 4.00222 99.0287 3.08043 98.8965C2.15863 98.7643 1.36852 98.4999 0.841774 98.2354C0.315032 97.971 0.0516608 97.5744 0.0516608 97.0455C-0.0800246 96.6489 0.0516608 95.9878 0.315032 95.4589L33.2364 2.51208C33.3681 1.98322 33.6315 1.58658 33.8948 1.32215C34.1582 1.05772 34.5532 0.793288 35.08 0.528858C35.6067 0.396644 36.2652 0.264429 37.0553 0.132215C37.8454 0 38.8989 0 40.084 0C41.6643 0 42.8494 0.132215 43.7712 0.264429C44.693 0.396644 45.3515 0.661073 45.8782 0.925502C46.4049 1.18993 46.6683 1.58658 46.6683 2.11543C46.8 2.51208 46.6683 3.17315 46.5366 3.70201L13.6153 96.7811C13.4836 97.3099 13.2202 97.7066 12.9568 97.971C12.6935 98.2354 12.2984 98.4999 11.7717 98.6321C11.2449 98.7643 10.5865 98.8965 9.79638 99.0287C9.00627 99.1609 7.95279 99.1609 6.76762 99.1609C5.31908 99.1609 4.00222 99.0287 3.08043 98.8965C2.15863 98.7643 1.36852 98.4999 0.841774 98.2354C0.315032 97.971 0.0516608 97.5744 0.0516608 97.0455C-0.0800246 96.6489 0.0516608 95.9878 0.315032 95.4589L33.2364 2.51208C33.3681 1.98322 33.6315 1.58658 33.8948 1.32215C34.1582 1.05772 34.5532 0.793288 35.08 0.528858C35.6067 0.396644 36.2652 0.264429 37.0553 0.132215C37.8454 0 38.8989 0 40.084 0C41.6643 0 42.8494 0.132215 43.7712 0.264429C44.693 0.396644 45.3515 0.661073 45.8782 0.925502C46.4049 1.18993 46.6683 1.58658 46.6683 2.11543C46.8 2.51208 46.6683 3.17315 46.5366 3.70201L13.6153 96.7811Z"/>
	</g>
	<defs>
		<clipPath id="clip_2">
			<rect x="-1116" y="-1500" width="5760" height="4096" clip-rule="evenodd"/>
		</clipPath>
	</defs>
	<g clip-path="url(#clip_2)">
		<path fill="rgb(255,255,255)" stroke="none" transform="matrix(4 0 0 4 401.236 63.9815)" d="M34.631 60.0109C34.631 61.6006 34.4988 62.9254 34.3667 63.7202C34.2345 64.5151 33.8379 65.1774 33.5736 65.5748C33.177 65.9723 32.7805 66.2372 32.1196 66.5022C31.4587 66.7671 30.6656 67.0321 29.8726 67.1645C28.9473 67.4295 28.022 67.562 27.0968 67.6944C26.0393 67.8269 25.1141 67.8269 24.0567 67.8269C21.2809 67.8269 18.9017 67.4295 16.919 66.7671C14.9363 66.1047 13.2179 65.045 11.8961 63.5877C10.5744 62.1305 9.6491 60.2759 8.9882 58.0238C8.3273 55.7717 8.06295 53.1222 8.06295 50.2078L8.06295 24.7727L2.11487 24.7727C1.45397 24.7727 0.925256 24.3753 0.528718 23.448C0.132179 22.5207 0 21.0634 0 19.0763C0 18.0165 0 17.0892 0.132179 16.2944C0.264359 15.4995 0.396538 14.9696 0.528718 14.5722C0.660897 14.1748 0.925256 13.7773 1.18961 13.6449C1.45397 13.5124 1.85051 13.3799 2.11487 13.3799L7.93077 13.3799L7.93077 2.38454C7.93077 1.98712 8.06295 1.72217 8.19513 1.32474C8.45948 1.0598 8.72384 0.794847 9.25256 0.529898C9.78128 0.264949 10.4422 0.132474 11.3674 0.132474C12.2927 0.132474 13.3501 0 14.6719 0C15.9937 0 17.1833 0 18.1086 0.132474C19.0338 0.264949 19.6947 0.397423 20.2235 0.529898C20.7522 0.794847 21.1487 0.927321 21.2809 1.32474C21.4131 1.72217 21.6774 1.98712 21.6774 2.38454L21.6774 13.3799L32.384 13.3799C32.7805 13.3799 33.0449 13.5124 33.3092 13.6449C33.5736 13.7773 33.8379 14.1748 33.9701 14.5722C34.1023 14.9696 34.2345 15.632 34.3667 16.2944C34.4988 17.0892 34.4988 17.884 34.4988 19.0763C34.4988 21.0634 34.3667 22.5207 33.9701 23.448C33.5736 24.3753 33.0449 24.7727 32.384 24.7727L21.6774 24.7727L21.6774 47.9557C21.6774 50.6052 22.074 52.7248 22.9992 54.0496C23.7923 55.3743 25.3785 56.0367 27.4933 56.0367C28.2864 56.0367 28.9473 56.0367 29.476 55.9042C30.0047 55.7717 30.5335 55.6393 31.0622 55.5068C31.4587 55.3743 31.8552 55.2418 32.2518 55.1094C32.6483 54.9769 32.9127 54.9769 33.0449 54.9769C33.3092 54.9769 33.4414 54.9769 33.7058 55.1094C33.9701 55.2418 34.1023 55.5068 34.2345 55.9042C34.3667 56.3016 34.4988 56.8315 34.4988 57.4939C34.631 58.0238 34.631 58.9511 34.631 60.0109C34.631 61.6006 34.4988 62.9254 34.3667 63.7202C34.2345 64.5151 33.8379 65.1774 33.5736 65.5748C33.177 65.9723 32.7805 66.2372 32.1196 66.5022C31.4587 66.7671 30.6656 67.0321 29.8726 67.1645C28.9473 67.4295 28.022 67.562 27.0968 67.6944C26.0393 67.8269 25.1141 67.8269 24.0567 67.8269C21.2809 67.8269 18.9017 67.4295 16.919 66.7671C14.9363 66.1047 13.2179 65.045 11.8961 63.5877C10.5744 62.1305 9.6491 60.2759 8.9882 58.0238C8.3273 55.7717 8.06295 53.1222 8.06295 50.2078L8.06295 24.7727L2.11487 24.7727C1.45397 24.7727 0.925256 24.3753 0.528718 23.448C0.132179 22.5207 0 21.0634 0 19.0763C0 18.0165 0 17.0892 0.132179 16.2944C0.264359 15.4995 0.396538 14.9696 0.528718 14.5722C0.660897 14.1748 0.925256 13.7773 1.18961 13.6449C1.45397 13.5124 1.85051 13.3799 2.11487 13.3799L7.93077 13.3799L7.93077 2.38454C7.93077 1.98712 8.06295 1.72217 8.19513 1.32474C8.45948 1.0598 8.72384 0.794847 9.25256 0.529898C9.78128 0.264949 10.4422 0.132474 11.3674 0.132474C12.2927 0.132474 13.3501 0 14.6719 0C15.9937 0 17.1833 0 18.1086 0.132474C19.0338 0.264949 19.6947 0.397423 20.2235 0.529898C20.7522 0.794847 21.1487 0.927321 21.2809 1.32474C21.4131 1.72217 21.6774 1.98712 21.6774 2.38454L21.6774 13.3799L32.384 13.3799C32.7805 13.3799 33.0449 13.5124 33.3092 13.6449C33.5736 13.7773 33.8379 14.1748 33.9701 14.5722C34.1023 14.9696 34.2345 15.632 34.3667 16.2944C34.4988 17.0892 34.4988 17.884 34.4988 19.0763C34.4988 21.0634 34.3667 22.5207 33.9701 23.448C33.5736 24.3753 33.0449 24.7727 32.384 24.7727L21.6774 24.7727L21.6774 47.9557C21.6774 50.6052 22.074 52.7248 22.9992 54.0496C23.7923 55.3743 25.3785 56.0367 27.4933 56.0367C28.2864 56.0367 28.9473 56.0367 29.476 55.9042C30.0047 55.7717 30.5335 55.6393 31.0622 55.5068C31.4587 55.3743 31.8552 55.2418 32.2518 55.1094C32.6483 54.9769 32.9127 54.9769 33.0449 54.9769C33.3092 54.9769 33.4414 54.9769 33.7058 55.1094C33.9701 55.2418 34.1023 55.5068 34.2345 55.9042C34.3667 56.3016 34.4988 56.8315 34.4988 57.4939C34.631 58.0238 34.631 58.9511 34.631 60.0109Z"/>
	</g>
	<defs>
		<clipPath id="clip_3">
			<rect x="-1116" y="-1500" width="5760" height="4096" clip-rule="evenodd"/>
		</clipPath>
	</defs>
	<g clip-path="url(#clip_3)">
		<path fill="rgb(255,255,255)" stroke="none" transform="matrix(4 0 0 4 578.355 21.5897)" d="M47.5846 75.378C47.5846 75.7754 47.4524 76.0403 47.1881 76.3053C46.9237 76.5702 46.6593 76.8352 46.1306 76.9676C45.6019 77.1001 44.941 77.2326 44.0158 77.3651C43.0905 77.4975 42.0331 77.4975 40.7113 77.4975C39.3895 77.4975 38.1999 77.4975 37.2746 77.3651C36.3493 77.2326 35.6884 77.1001 35.1597 76.9676C34.631 76.8352 34.2345 76.5702 34.1023 76.3053C33.8379 76.0403 33.7058 75.6429 33.7058 75.378L33.7058 47.1609C33.7058 44.7764 33.5736 42.9217 33.177 41.4645C32.7805 40.1398 32.384 38.9475 31.5909 37.8877C30.93 36.9604 30.0047 36.1655 29.0795 35.6356C28.022 35.1057 26.8324 34.8408 25.3785 34.8408C23.6601 34.8408 21.8096 35.5031 19.9591 36.8279C18.1086 38.1526 16.2581 40.0073 14.2754 42.5243L14.2754 75.378C14.2754 75.7754 14.1432 76.0403 13.8788 76.3053C13.6145 76.5702 13.2179 76.8352 12.6892 76.9676C12.1605 77.1001 11.4996 77.2326 10.5744 77.3651C9.6491 77.4975 8.59166 77.4975 7.13769 77.4975C5.68372 77.4975 4.62628 77.4975 3.70102 77.3651C2.77577 77.2326 2.11487 77.1001 1.58615 76.9676C1.05744 76.8352 0.660897 76.5702 0.396538 76.3053C0.132179 76.0403 0 75.6429 0 75.378L0 2.51701C0 2.11959 0.132179 1.85464 0.396538 1.45722C0.660897 1.19227 1.05744 0.927321 1.58615 0.662372C2.11487 0.397423 2.77577 0.264949 3.70102 0.132474C4.62628 0 5.68372 0 7.13769 0C8.59166 0 9.6491 0 10.5744 0.132474C11.4996 0.264949 12.1605 0.397423 12.6892 0.662372C13.2179 0.927321 13.6145 1.0598 13.8788 1.45722C14.1432 1.72217 14.2754 2.11959 14.2754 2.51701L14.2754 29.8067C16.6546 27.4222 19.166 25.7 21.5452 24.5078C24.0567 23.3155 26.5681 22.7856 29.3438 22.7856C32.6483 22.7856 35.5563 23.3155 37.8033 24.5078C40.0504 25.5676 42.0331 27.1573 43.3549 29.0119C44.8088 30.999 45.7341 33.1186 46.395 35.7681C47.0559 38.4176 47.3202 41.4645 47.3202 45.1738L47.3202 75.378L47.5846 75.378C47.5846 75.7754 47.4524 76.0403 47.1881 76.3053C46.9237 76.5702 46.6593 76.8352 46.1306 76.9676C45.6019 77.1001 44.941 77.2326 44.0158 77.3651C43.0905 77.4975 42.0331 77.4975 40.7113 77.4975C39.3895 77.4975 38.1999 77.4975 37.2746 77.3651C36.3493 77.2326 35.6884 77.1001 35.1597 76.9676C34.631 76.8352 34.2345 76.5702 34.1023 76.3053C33.8379 76.0403 33.7058 75.6429 33.7058 75.378L33.7058 47.1609C33.7058 44.7764 33.5736 42.9217 33.177 41.4645C32.7805 40.1398 32.384 38.9475 31.5909 37.8877C30.93 36.9604 30.0047 36.1655 29.0795 35.6356C28.022 35.1057 26.8324 34.8408 25.3785 34.8408C23.6601 34.8408 21.8096 35.5031 19.9591 36.8279C18.1086 38.1526 16.2581 40.0073 14.2754 42.5243L14.2754 75.378C14.2754 75.7754 14.1432 76.0403 13.8788 76.3053C13.6145 76.5702 13.2179 76.8352 12.6892 76.9676C12.1605 77.1001 11.4996 77.2326 10.5744 77.3651C9.6491 77.4975 8.59166 77.4975 7.13769 77.4975C5.68372 77.4975 4.62628 77.4975 3.70102 77.3651C2.77577 77.2326 2.11487 77.1001 1.58615 76.9676C1.05744 76.8352 0.660897 76.5702 0.396538 76.3053C0.132179 76.0403 0 75.6429 0 75.378L0 2.51701C0 2.11959 0.132179 1.85464 0.396538 1.45722C0.660897 1.19227 1.05744 0.927321 1.58615 0.662372C2.11487 0.397423 2.77577 0.264949 3.70102 0.132474C4.62628 0 5.68372 0 7.13769 0C8.59166 0 9.6491 0 10.5744 0.132474C11.4996 0.264949 12.1605 0.397423 12.6892 0.662372C13.2179 0.927321 13.6145 1.0598 13.8788 1.45722C14.1432 1.72217 14.2754 2.11959 14.2754 2.51701L14.2754 29.8067C16.6546 27.4222 19.166 25.7 21.5452 24.5078C24.0567 23.3155 26.5681 22.7856 29.3438 22.7856C32.6483 22.7856 35.5563 23.3155 37.8033 24.5078C40.0504 25.5676 42.0331 27.1573 43.3549 29.0119C44.8088 30.999 45.7341 33.1186 46.395 35.7681C47.0559 38.4176 47.3202 41.4645 47.3202 45.1738L47.3202 75.378L47.5846 75.378Z"/>
	</g>
	<defs>
		<clipPath id="clip_4">
			<rect x="-1116" y="-1500" width="5760" height="4096" clip-rule="evenodd"/>
		</clipPath>
	</defs>
	<g clip-path="url(#clip_4)">
		<path fill="rgb(255,255,255)" stroke="none" transform="matrix(4 0 0 4 810.992 112.732)" d="M51.2856 38.9475C52.4752 35.5032 53.004 31.6614 53.004 27.4222C53.004 23.0506 52.4752 19.0763 51.4178 15.7645C50.3604 12.3201 48.7742 9.53816 46.6593 7.15362C44.5445 4.76908 41.7687 3.04691 38.5964 1.85464C35.4241 0.662372 31.4587 0 27.0968 0C22.4705 0 18.6373 0.662372 15.2006 1.98712C11.764 3.44434 8.9882 5.29898 6.74115 7.81599C4.4941 10.333 2.90795 13.3799 1.71833 16.8243C0.528718 20.2686 0 24.1103 0 28.3495C0 32.7212 0.528718 36.5629 1.58615 40.0073C2.64359 43.4516 4.22974 46.2336 6.34461 48.6181C8.45948 50.8702 11.1031 52.7248 14.4076 53.9171C17.712 55.1094 21.5452 55.7717 25.9072 55.7717Q32.6483 55.7717 37.8033 53.7846C41.24 52.4599 44.0158 50.4728 46.2628 47.9557C48.5099 45.4387 50.2282 42.3918 51.2856 38.9475ZM38.1999 21.1959C38.5964 23.3155 38.7286 25.5676 38.7286 27.9521C38.7286 30.6016 38.4642 32.9861 38.0677 34.8408C37.539 36.9604 36.8781 38.6825 35.8206 40.1398C34.7632 41.597 33.5736 42.6568 31.9874 43.4516C30.5335 44.2465 28.6829 44.6439 26.5681 44.6439C24.1888 44.6439 22.3383 44.3789 20.7522 43.4516C19.166 42.5243 17.9764 41.332 17.0511 39.8748C16.1259 38.4176 15.465 36.5629 15.0685 34.5758C14.6719 32.4562 14.4076 30.2042 14.4076 27.8196C14.4076 25.1701 14.6719 22.9181 15.2006 20.7985C15.7294 18.6789 16.3903 16.9567 17.4477 15.4995C18.5051 14.0423 19.6947 12.9825 21.2809 12.1876C22.867 11.3928 24.5854 10.9954 26.7002 10.9954C29.0795 10.9954 30.93 11.5253 32.5161 12.3201C34.1023 13.2474 35.2919 14.4397 36.2172 15.8969C37.1424 17.3542 37.8033 19.2088 38.1999 21.1959Z" fill-rule="evenodd"/>
	</g>
	<defs>
		<clipPath id="clip_5">
			<rect x="-1116" y="-1500" width="5760" height="4096" clip-rule="evenodd"/>
		</clipPath>
	</defs>
	<g clip-path="url(#clip_5)">
		<path fill="rgb(255,255,255)" stroke="none" transform="matrix(4 0 0 4 1065.3 112.732)" d="M47.5846 52.5924C47.5846 52.9898 47.4524 53.2547 47.1881 53.5197C46.9237 53.7846 46.6593 54.0496 46.1306 54.182C45.6019 54.3145 44.941 54.447 44.0158 54.5795C43.0905 54.7119 42.0331 54.7119 40.7113 54.7119C39.3895 54.7119 38.1999 54.7119 37.2746 54.5795C36.3493 54.447 35.6884 54.3145 35.1597 54.182C34.631 54.0496 34.2345 53.7846 34.1023 53.5197C33.8379 53.2547 33.7058 52.8573 33.7058 52.5924L33.7058 24.3753C33.7058 21.9908 33.5736 20.1361 33.177 18.6789C32.7805 17.2217 32.384 16.1619 31.5909 15.1021C30.93 14.1748 30.0047 13.3799 29.0795 12.85C28.022 12.3201 26.8324 12.0552 25.3785 12.0552C23.6601 12.0552 21.8096 12.7175 19.9591 14.0423C18.1086 15.367 16.2581 17.2217 14.2754 19.7387L14.2754 52.5924C14.2754 52.9898 14.1432 53.2547 13.8788 53.5197C13.6145 53.7846 13.2179 54.0496 12.6892 54.182C12.1605 54.3145 11.4996 54.447 10.5744 54.5795C9.6491 54.7119 8.59166 54.7119 7.13769 54.7119C5.68372 54.7119 4.62628 54.7119 3.70102 54.5795C2.77577 54.447 2.11487 54.3145 1.58615 54.182C1.05744 54.0496 0.660897 53.7846 0.396538 53.5197C0.132179 53.2547 0 52.8573 0 52.5924L0 3.17939C0 2.78196 0.132179 2.51701 0.264359 2.25207C0.396538 1.98712 0.793077 1.72217 1.32179 1.58969C1.85051 1.45722 2.37923 1.32474 3.17231 1.19227C3.96538 1.0598 4.89064 1.0598 6.08025 1.0598C7.26987 1.0598 8.19513 1.0598 8.9882 1.19227C9.78128 1.32474 10.31 1.45722 10.8387 1.58969C11.3674 1.72217 11.6318 1.98712 11.764 2.25207C11.8961 2.51701 12.0283 2.91444 12.0283 3.17939L12.0283 8.87579C14.8041 5.96135 17.5799 3.70928 20.3556 2.25207C23.1314 0.794847 26.1715 0 29.2117 0C32.5161 0 35.4241 0.529898 37.6711 1.72217C39.9182 2.78196 41.9009 4.37166 43.2227 6.2263C44.6767 8.08094 45.6019 10.333 46.2628 12.85C46.9237 15.367 47.1881 18.4139 47.1881 21.9908L47.1881 52.5924L47.5846 52.5924C47.5846 52.9898 47.4524 53.2547 47.1881 53.5197C46.9237 53.7846 46.6593 54.0496 46.1306 54.182C45.6019 54.3145 44.941 54.447 44.0158 54.5795C43.0905 54.7119 42.0331 54.7119 40.7113 54.7119C39.3895 54.7119 38.1999 54.7119 37.2746 54.5795C36.3493 54.447 35.6884 54.3145 35.1597 54.182C34.631 54.0496 34.2345 53.7846 34.1023 53.5197C33.8379 53.2547 33.7058 52.8573 33.7058 52.5924L33.7058 24.3753C33.7058 21.9908 33.5736 20.1361 33.177 18.6789C32.7805 17.2217 32.384 16.1619 31.5909 15.1021C30.93 14.1748 30.0047 13.3799 29.0795 12.85C28.022 12.3201 26.8324 12.0552 25.3785 12.0552C23.6601 12.0552 21.8096 12.7175 19.9591 14.0423C18.1086 15.367 16.2581 17.2217 14.2754 19.7387L14.2754 52.5924C14.2754 52.9898 14.1432 53.2547 13.8788 53.5197C13.6145 53.7846 13.2179 54.0496 12.6892 54.182C12.1605 54.3145 11.4996 54.447 10.5744 54.5795C9.6491 54.7119 8.59166 54.7119 7.13769 54.7119C5.68372 54.7119 4.62628 54.7119 3.70102 54.5795C2.77577 54.447 2.11487 54.3145 1.58615 54.182C1.05744 54.0496 0.660897 53.7846 0.396538 53.5197C0.132179 53.2547 0 52.8573 0 52.5924L0 3.17939C0 2.78196 0.132179 2.51701 0.264359 2.25207C0.396538 1.98712 0.793077 1.72217 1.32179 1.58969C1.85051 1.45722 2.37923 1.32474 3.17231 1.19227C3.96538 1.0598 4.89064 1.0598 6.08025 1.0598C7.26987 1.0598 8.19513 1.0598 8.9882 1.19227C9.78128 1.32474 10.31 1.45722 10.8387 1.58969C11.3674 1.72217 11.6318 1.98712 11.764 2.25207C11.8961 2.51701 12.0283 2.91444 12.0283 3.17939L12.0283 8.87579C14.8041 5.96135 17.5799 3.70928 20.3556 2.25207C23.1314 0.794847 26.1715 0 29.2117 0C32.5161 0 35.4241 0.529898 37.6711 1.72217C39.9182 2.78196 41.9009 4.37166 43.2227 6.2263C44.6767 8.08094 45.6019 10.333 46.2628 12.85C46.9237 15.367 47.1881 18.4139 47.1881 21.9908L47.1881 52.5924L47.5846 52.5924Z"/>
	</g>
</svg>
