<svg xmlns="http://www.w3.org/2000/svg" width="60" height="60" viewBox="0 0 60 60">
    <g fill="none" fill-rule="evenodd">
        <path d="M0 0h60v60H0z"/>
        <circle cx="30" cy="30" r="29" stroke="#FFF" stroke-width="2"/>
        <path fill="#FFF" d="M42.257 16.256L37.972 41.97c-.056.323-.235.574-.536.753-.156.09-.33.134-.519.134-.123 0-.257-.028-.402-.084l-7.583-3.097-4.052 4.939c-.2.256-.474.385-.82.385a.905.905 0 0 1-.368-.067 1.05 1.05 0 0 1-.51-.394 1.045 1.045 0 0 1-.193-.61v-5.843l14.464-17.729-17.896 15.486-6.613-2.712c-.413-.157-.636-.464-.67-.921-.022-.447.157-.776.536-.988l27.857-16.071c.167-.1.346-.15.536-.15.223 0 .424.06.602.183.369.268.52.625.452 1.072z"/>
    </g>
</svg>
