<svg xmlns="http://www.w3.org/2000/svg" width="60" height="60" viewBox="0 0 60 60">
    <g fill="none" fill-rule="evenodd">
        <path d="M0 0h60v60H0z"/>
        <circle cx="30" cy="30" r="29" stroke="#FFF" stroke-width="2"/>
        <path fill="#FFF" d="M38.53 32.568l-1.943.651.673 2.012a1.554 1.554 0 1 1-2.948.987l-.674-2.01-4.008 1.342.673 2.01a1.555 1.555 0 1 1-2.948.989l-.674-2.012-1.944.651a1.558 1.558 0 0 1-1.968-.981 1.554 1.554 0 0 1 .98-1.968l1.945-.652L24.4 29.73l-1.944.651a1.555 1.555 0 0 1-.988-2.95l1.945-.65-.675-2.012a1.555 1.555 0 1 1 2.95-.987l.673 2.011 4.009-1.342-.674-2.011a1.556 1.556 0 0 1 2.949-.989l.673 2.012 1.945-.651a1.555 1.555 0 1 1 .987 2.95l-1.944.65L35.6 30.27l1.945-.652a1.556 1.556 0 0 1 .987 2.95M27.188 28.53l1.291 3.858 4.01-1.343-1.293-3.857-4.008 1.342zm16.556-2.654c3.093 10.308.688 14.775-9.62 17.868-10.308 3.093-14.775.688-17.868-9.62-3.093-10.31-.688-14.776 9.62-17.868 10.31-3.093 14.776-.688 17.868 9.62z"/>
    </g>
</svg>
