<?xml version="1.0" encoding="utf-8"?>
<!-- Generator: Adobe Illustrator 19.2.0, SVG Export Plug-In . SVG Version: 6.00 Build 0)  -->
<svg version="1.1" id="Layer_1" xmlns="http://www.w3.org/2000/svg" xmlns:xlink="http://www.w3.org/1999/xlink" x="0px" y="0px"
	 viewBox="23 0 300 300" style="enable-background:new 0 0 300 300;" xml:space="preserve">
<style type="text/css">
	.st0{fill:#fff;}
	.st1{fill:#8F1E2F;}
</style>
<path class="st0" d="M104.1,179.2c-0.2-0.4-0.4-0.8-0.6-1c-0.2-0.2-0.5-0.4-0.9-0.5l-19.6-7l8.7-24.4l9.8,3.5
	c0.5,0.1,0.9,0.2,1.3,0.1c0.4-0.1,0.7-0.3,0.9-0.7c0.2-0.4,0.4-1,0.5-1.7c0.1-0.8,0.2-1.8,0.2-3c0-0.9-0.1-1.7-0.1-2.4
	s-0.2-1.2-0.3-1.6c-0.2-0.4-0.4-0.8-0.6-1c-0.2-0.2-0.5-0.4-0.9-0.5l-7.3-2.6l7.9-22.1c0.1-0.5,0.2-0.9,0.1-1.3
	c-0.1-0.4-0.3-0.7-0.7-0.9c-0.4-0.2-1-0.4-1.7-0.5c-0.8-0.1-1.8-0.2-3-0.2c-0.9,0-1.7,0-2.4,0.1c-0.7,0-1.2,0.2-1.6,0.3
	c-0.4,0.2-0.8,0.4-1,0.6s-0.4,0.5-0.5,0.9l-7,19.6l-24.4-8.7l3.5-9.9c0.1-0.5,0.2-0.9,0.1-1.3c-0.1-0.4-0.3-0.7-0.7-0.9
	s-1-0.4-1.7-0.5c-0.8-0.1-1.8-0.2-3-0.2c-0.9,0-1.7,0-2.4,0.1c-0.7,0-1.2,0.2-1.6,0.3c-0.4,0.2-0.8,0.4-1,0.6s-0.4,0.5-0.5,0.9
	l-2.6,7.4l-22.1-7.9c-0.5-0.2-0.9-0.3-1.3-0.2c-0.4,0.1-0.7,0.3-0.9,0.7c-0.2,0.4-0.4,0.9-0.5,1.7c-0.1,0.7-0.2,1.7-0.2,2.9
	c0,1,0,1.8,0.1,2.4c0,0.7,0.2,1.2,0.3,1.6c0.2,0.4,0.4,0.8,0.6,1c0.2,0.3,0.5,0.5,0.9,0.6l19.6,7L39,155l-9.9-3.5
	c-0.5-0.2-0.9-0.3-1.3-0.2c-0.4,0.1-0.7,0.3-0.9,0.7c-0.2,0.4-0.4,0.9-0.5,1.7c-0.1,0.7-0.2,1.7-0.2,2.9c0,1,0,1.8,0.1,2.4
	c0,0.7,0.2,1.2,0.3,1.6c0.2,0.4,0.4,0.8,0.6,1c0.2,0.3,0.5,0.5,0.9,0.6l7.4,2.6l-7.9,22.1c-0.2,0.5-0.3,0.9-0.2,1.3
	c0.1,0.4,0.3,0.7,0.7,0.9c0.4,0.2,0.9,0.4,1.7,0.5c0.7,0.1,1.7,0.2,2.9,0.2c1,0,1.8,0,2.4-0.1c0.7,0,1.2-0.1,1.6-0.3
	c0.4-0.2,0.8-0.4,1-0.6c0.3-0.2,0.5-0.5,0.6-0.9l7-19.5l24.4,8.7l-3.5,9.8c-0.2,0.5-0.3,0.9-0.2,1.3c0.1,0.4,0.3,0.7,0.7,0.9
	c0.4,0.2,1,0.4,1.7,0.5c0.7,0.1,1.7,0.2,2.9,0.2c1,0,1.8,0,2.4-0.1c0.7,0,1.2-0.2,1.6-0.3c0.4-0.2,0.8-0.4,1-0.6
	c0.3-0.2,0.5-0.5,0.6-0.9l2.6-7.3l22.1,7.9c0.5,0.1,0.9,0.2,1.3,0.1c0.4-0.1,0.7-0.3,0.9-0.7c0.2-0.4,0.4-1,0.5-1.7
	c0.1-0.8,0.2-1.8,0.2-3c0-0.9-0.1-1.7-0.1-2.4S104.2,179.6,104.1,179.2z M48.8,158.5l8.7-24.4l24.4,8.7l-8.7,24.4L48.8,158.5z"/>
<g>
	<path class="st1" d="M133,171.2c0,1.3-0.1,2.3-0.2,3c-0.2,0.7-0.4,1.2-0.6,1.4c-0.3,0.3-0.6,0.5-1.2,0.7c-0.5,0.2-1.1,0.4-1.8,0.6
		c-0.7,0.2-1.4,0.3-2.2,0.4s-1.6,0.1-2.4,0.1c-2.2,0-4.1-0.3-5.7-0.8c-1.6-0.6-2.9-1.4-4-2.6c-1.1-1.2-1.8-2.6-2.3-4.4
		c-0.5-1.8-0.7-3.8-0.7-6.2v-20h-4.7c-0.6,0-1-0.3-1.3-1s-0.4-1.8-0.4-3.4c0-0.8,0-1.6,0.1-2.1s0.2-1,0.3-1.4
		c0.1-0.3,0.3-0.6,0.5-0.7s0.5-0.2,0.8-0.2h4.6v-8.7c0-0.3,0.1-0.6,0.2-0.8c0.2-0.2,0.5-0.4,0.9-0.6s1-0.3,1.7-0.4s1.6-0.1,2.6-0.1
		c1.1,0,2,0,2.7,0.1s1.3,0.2,1.7,0.4c0.4,0.2,0.7,0.4,0.9,0.6c0.2,0.2,0.3,0.5,0.3,0.8v8.7h8.5c0.3,0,0.5,0.1,0.8,0.2
		s0.4,0.4,0.5,0.7s0.3,0.8,0.3,1.4s0.1,1.3,0.1,2.1c0,1.6-0.1,2.8-0.4,3.4s-0.7,1-1.3,1h-8.5v18.3c0,2.1,0.3,3.7,1,4.8
		s1.9,1.6,3.6,1.6c0.6,0,1.1-0.1,1.6-0.2c0.5-0.1,0.9-0.2,1.2-0.4c0.4-0.1,0.7-0.2,0.9-0.4c0.2-0.1,0.5-0.2,0.7-0.2s0.3,0.1,0.5,0.2
		c0.2,0.1,0.3,0.3,0.4,0.6c0.1,0.3,0.2,0.7,0.2,1.2C133,169.7,133,170.4,133,171.2z"/>
	<path class="st1" d="M178.3,175c0,0.3-0.1,0.5-0.3,0.8c-0.2,0.2-0.5,0.4-0.9,0.5s-1,0.3-1.7,0.3c-0.7,0.1-1.6,0.1-2.6,0.1
		c-1.1,0-2,0-2.7-0.1s-1.3-0.2-1.7-0.3s-0.7-0.3-0.9-0.5s-0.3-0.5-0.3-0.8v-22.3c0-1.9-0.1-3.4-0.4-4.5c-0.3-1.1-0.7-2-1.2-2.8
		s-1.2-1.4-2-1.8s-1.8-0.6-2.9-0.6c-1.4,0-2.8,0.5-4.2,1.5s-2.9,2.5-4.5,4.5v26c0,0.3-0.1,0.5-0.3,0.8s-0.5,0.4-0.9,0.5
		s-1,0.3-1.7,0.3s-1.6,0.1-2.7,0.1s-2,0-2.7-0.1s-1.3-0.2-1.7-0.3s-0.7-0.3-0.9-0.5s-0.3-0.5-0.3-0.8v-57.6c0-0.3,0.1-0.6,0.3-0.8
		s0.5-0.4,0.9-0.6s1-0.3,1.7-0.4s1.6-0.1,2.7-0.1s2,0,2.7,0.1s1.3,0.2,1.7,0.4s0.7,0.4,0.9,0.6s0.3,0.5,0.3,0.8V139
		c1.9-1.9,3.8-3.3,5.8-4.2s4-1.4,6.2-1.4c2.7,0,4.9,0.4,6.7,1.3c1.8,0.9,3.3,2.1,4.4,3.6c1.1,1.5,1.9,3.3,2.4,5.3s0.7,4.5,0.7,7.4
		L178.3,175L178.3,175z"/>
	<path class="st1" d="M228.6,155.1c0,3.3-0.4,6.4-1.3,9.1c-0.9,2.7-2.2,5.1-4,7.1s-4,3.5-6.7,4.6s-5.8,1.6-9.4,1.6
		c-3.5,0-6.5-0.5-9.1-1.4c-2.6-1-4.7-2.4-6.4-4.2s-2.9-4.1-3.8-6.8s-1.2-5.8-1.2-9.2c0-3.3,0.4-6.4,1.3-9.1c0.9-2.8,2.2-5.1,4-7.1
		s4-3.5,6.7-4.6s5.8-1.6,9.4-1.6c3.5,0,6.5,0.5,9.1,1.4s4.7,2.3,6.4,4.2s2.9,4.1,3.7,6.8C228.2,148.6,228.6,151.6,228.6,155.1z
		 M217.3,155.6c0-1.9-0.2-3.7-0.5-5.3s-0.8-3-1.6-4.2s-1.7-2.1-2.9-2.8s-2.7-1-4.6-1c-1.6,0-3.1,0.3-4.3,0.9s-2.2,1.5-3,2.6
		c-0.8,1.2-1.4,2.5-1.8,4.2c-0.4,1.6-0.6,3.5-0.6,5.5c0,1.9,0.2,3.7,0.5,5.3s0.8,3,1.6,4.2s1.7,2.1,2.9,2.8s2.7,1,4.6,1
		c1.7,0,3.1-0.3,4.3-0.9s2.2-1.5,3-2.6s1.4-2.5,1.8-4.1S217.3,157.6,217.3,155.6z"/>
	<path class="st1" d="M274.6,175c0,0.3-0.1,0.5-0.3,0.8s-0.5,0.4-0.9,0.5s-1,0.3-1.7,0.3c-0.7,0.1-1.6,0.1-2.6,0.1
		c-1.1,0-2,0-2.7-0.1s-1.3-0.2-1.7-0.3c-0.4-0.1-0.7-0.3-0.9-0.5s-0.3-0.5-0.3-0.8v-22.3c0-1.9-0.1-3.4-0.4-4.5s-0.7-2-1.2-2.8
		s-1.2-1.4-2-1.8s-1.8-0.6-2.9-0.6c-1.4,0-2.8,0.5-4.2,1.5s-2.9,2.5-4.5,4.5v26c0,0.3-0.1,0.5-0.3,0.8s-0.5,0.4-0.9,0.5
		s-1,0.3-1.7,0.3c-0.7,0.1-1.6,0.1-2.7,0.1c-1.1,0-2,0-2.7-0.1s-1.3-0.2-1.7-0.3s-0.7-0.3-0.9-0.5s-0.3-0.5-0.3-0.8v-39
		c0-0.3,0.1-0.5,0.2-0.8s0.4-0.4,0.8-0.5c0.4-0.1,0.9-0.3,1.5-0.3c0.6-0.1,1.4-0.1,2.3-0.1c0.9,0,1.7,0,2.3,0.1s1.1,0.2,1.4,0.3
		c0.3,0.1,0.6,0.3,0.7,0.5s0.2,0.5,0.2,0.8v4.5c2.2-2.3,4.4-4.1,6.6-5.3c2.2-1.2,4.6-1.8,7-1.8c2.7,0,4.9,0.4,6.7,1.3
		c1.8,0.9,3.3,2.1,4.4,3.6s1.9,3.3,2.4,5.3s0.7,4.4,0.7,7.3V175H274.6z"/>
</g>
</svg>
