<?xml version="1.0" encoding="utf-8" ?>
<svg xmlns="http://www.w3.org/2000/svg" xmlns:xlink="http://www.w3.org/1999/xlink" width="946" height="298">
	<defs>
		<clipPath id="clip_0">
			<rect x="-382.13086" y="-1030.45" width="5745.6001" height="23237.76" clip-rule="evenodd"/>
		</clipPath>
	</defs>
	<g clip-path="url(#clip_0)">
		<path fill="rgb(143,30,47)" stroke="none" transform="matrix(3.99 0 0 3.99 0.910156 0.48519)" d="M73.576 63.4177C73.7658 63.6076 73.9557 63.9873 74.1456 64.3671C74.2405 64.7468 74.4304 65.2215 74.4304 65.8861C74.4304 66.5506 74.5253 67.3101 74.5253 68.1646C74.5253 69.3038 74.4304 70.2532 74.3354 71.0127C74.2405 71.6772 74.0506 72.2468 73.8608 72.6266C73.6709 73.0063 73.3861 73.1962 73.0063 73.2911C72.6617 73.3773 72.317 73.3071 71.9014 73.2224C71.8591 73.2138 71.816 73.205 71.7721 73.1962L50.7911 65.6962L48.3228 72.6266C48.2278 73.0063 48.038 73.2911 47.7532 73.481C47.5633 73.6709 47.1835 73.8608 46.8038 74.0506C46.424 74.1456 45.9494 74.3354 45.2848 74.3354C44.7152 74.4304 43.9557 74.4304 43.0063 74.4304C41.8671 74.4304 40.9177 74.3354 40.2532 74.2405C39.5886 74.1456 39.019 73.9557 38.6392 73.7658C38.2595 73.576 38.0696 73.2911 37.9747 72.9114C37.8797 72.5316 37.9747 72.1519 38.1646 71.6772L41.4873 62.3734L18.3228 54.1139L11.6772 72.6266C11.5823 73.0063 11.3924 73.2911 11.1076 73.481C10.9177 73.6709 10.538 73.8608 10.1582 74.0506C9.77848 74.2405 9.3038 74.3354 8.63924 74.3354C8.06962 74.4304 7.31013 74.4304 6.36076 74.4304C5.22152 74.4304 4.27215 74.3354 3.60759 74.2405C2.8481 74.1456 2.37342 73.9557 1.99367 73.7658C1.61392 73.576 1.42405 73.2911 1.32911 72.9114C1.23418 72.5316 1.32911 72.1519 1.51899 71.6772L9.01899 50.6962L1.99367 48.2278C1.61392 48.1329 1.32911 47.943 1.13924 47.6582C0.949367 47.4684 0.759494 47.0886 0.56962 46.7089C0.474684 46.3291 0.28481 45.8544 0.28481 45.1899C0.189873 44.6203 0.189873 43.8608 0.189873 42.9114C0.189873 41.7722 0.28481 40.8228 0.379747 40.1582C0.474684 39.3987 0.664557 38.924 0.85443 38.5443C1.0443 38.1646 1.32911 37.9747 1.70886 37.8797C2.08861 37.7848 2.46835 37.8797 2.94304 38.0696L12.3418 41.3924L20.4114 18.1329L1.8038 11.4873C1.42405 11.3924 1.13924 11.2025 0.949367 10.9177C0.759494 10.7278 0.56962 10.3481 0.379747 9.96835C0.28481 9.58861 0.0949367 9.11392 0.0949367 8.44937C0 7.87975 0 7.12025 0 6.17089C0 5.03165 0.0949367 4.08228 0.189873 3.41772C0.28481 2.65823 0.474684 2.18354 0.664557 1.8038C0.85443 1.42405 1.13924 1.23418 1.51899 1.13924C1.89873 1.0443 2.27848 1.13924 2.75316 1.32911L23.7342 8.82911L26.2025 1.8038C26.2975 1.42405 26.4873 1.13924 26.6772 0.949367C26.8671 0.759494 27.2468 0.56962 27.6266 0.379747C28.0063 0.28481 28.481 0.0949367 29.1456 0.0949367C29.8101 0 30.5696 0 31.424 0C32.5633 0 33.5127 0.0949367 34.2722 0.189873C34.9367 0.28481 35.5063 0.474684 35.8861 0.664557C36.2658 0.85443 36.4557 1.13924 36.5506 1.51899C36.6368 1.86362 36.5666 2.20826 36.4819 2.62385C36.4733 2.66619 36.4645 2.70927 36.4557 2.75316L33.1329 12.1519L56.2975 20.4114L62.943 1.8038C63.038 1.42405 63.2278 1.13924 63.4177 0.949367C63.6076 0.759494 63.9873 0.56962 64.3671 0.379747C64.7468 0.28481 65.2215 0.0949367 65.8861 0.0949367C66.5506 0 67.3101 0 68.1646 0C69.3038 0 70.2532 0.0949367 71.0127 0.189873C71.6772 0.28481 72.2468 0.474684 72.6266 0.664557C73.0063 0.85443 73.1962 1.13924 73.2911 1.51899C73.3773 1.86362 73.3071 2.20826 73.2224 2.62385C73.2138 2.66619 73.205 2.70927 73.1962 2.75316L65.6962 23.7342L72.6266 26.2025C73.0063 26.2975 73.2911 26.4873 73.481 26.6772C73.6709 26.8671 73.8608 27.2468 74.0506 27.6266C74.1456 28.0063 74.3354 28.481 74.3354 29.1456C74.3354 29.8101 74.4304 30.5696 74.4304 31.4241C74.4304 32.5633 74.3354 33.5127 74.2405 34.2722C74.1456 34.9367 73.9557 35.5063 73.7658 35.8861C73.576 36.2658 73.2911 36.4557 72.9114 36.5506C72.5668 36.6368 72.2221 36.5666 71.8065 36.4819C71.7642 36.4733 71.7211 36.4645 71.6772 36.4557L62.3734 33.1329L54.1139 56.2975L72.7215 62.943C73.1013 63.038 73.3861 63.2279 73.576 63.4177ZM29.9051 21.5506L21.6456 44.7152L44.8101 52.9747L53.0696 29.8101L29.9051 21.5506Z" fill-rule="evenodd"/>
	</g>
	<defs>
		<clipPath id="clip_1">
			<rect x="-382.13086" y="-1030.45" width="5745.6001" height="23237.76" clip-rule="evenodd"/>
		</clipPath>
	</defs>
	<g clip-path="url(#clip_1)">
		<path fill="rgb(143,30,47)" stroke="none" transform="matrix(3.99 0 0 3.99 302.055 48.2137)" d="M26.1076 44.8101C26.1076 46.0443 26.0127 46.9937 25.9177 47.6582C25.7278 48.3228 25.538 48.7975 25.3481 48.9873C25.0633 49.2722 24.7785 49.462 24.2089 49.6519C23.7342 49.8418 23.1646 50.0316 22.5 50.2215C21.8354 50.4114 21.1709 50.5063 20.4114 50.6013C19.6519 50.6962 18.8924 50.6962 18.1329 50.6962C16.0443 50.6962 14.2405 50.4114 12.7215 49.9367C11.2025 49.3671 9.96835 48.6076 8.92405 47.4684C7.87975 46.3291 7.21519 45 6.74051 43.2911C6.26582 41.5823 6.07595 39.6835 6.07595 37.4051L6.07595 18.4177L1.61392 18.4177C1.0443 18.4177 0.664557 18.1329 0.379747 17.4684C0.0949367 16.8038 0 15.7595 0 14.2405C0 13.481 0 12.7215 0.0949367 12.2468C0.189873 11.7722 0.28481 11.2975 0.379747 10.9177C0.474684 10.6329 0.664557 10.3481 0.85443 10.2532C1.0443 10.1582 1.32911 10.0633 1.61392 10.0633L5.98101 10.0633L5.98101 1.8038C5.98101 1.51899 6.07595 1.23418 6.17089 1.0443C6.36076 0.85443 6.64557 0.664557 7.02532 0.474684C7.40506 0.28481 7.97468 0.189873 8.63924 0.0949367C9.3038 -1.34913e-14 10.1582 0 11.1076 0C12.1519 0 13.0063 0 13.6709 0.0949367C14.3354 0.189873 14.9051 0.28481 15.2848 0.474684C15.6646 0.664557 15.9494 0.85443 16.1392 1.0443C16.3291 1.23418 16.4241 1.51899 16.4241 1.8038L16.4241 10.0633L24.4937 10.0633C24.7785 10.0633 24.9684 10.1582 25.2532 10.2532C25.538 10.3481 25.6329 10.6329 25.7278 10.9177C25.8228 11.2025 26.0127 11.6772 26.0127 12.2468C26.0127 12.8165 26.1076 13.481 26.1076 14.2405C26.1076 15.7595 26.0127 16.8987 25.7278 17.4684C25.443 18.038 25.0633 18.4177 24.4937 18.4177L16.4241 18.4177L16.4241 35.7911C16.4241 37.7848 16.7089 39.3038 17.3734 40.3481C18.038 41.3924 19.1772 41.8671 20.7911 41.8671C21.3608 41.8671 21.8354 41.7721 22.3101 41.6772C22.7848 41.5823 23.1646 41.4873 23.4494 41.2975C23.8291 41.2025 24.1139 41.1076 24.3038 40.9177C24.4937 40.8228 24.7785 40.7278 24.9684 40.7278C25.1582 40.7278 25.2532 40.8228 25.443 40.9177C25.6329 41.0127 25.7278 41.2025 25.8228 41.4873C25.9177 41.7721 26.0127 42.1519 26.0127 42.6266C26.1076 43.3861 26.1076 44.0506 26.1076 44.8101C26.1076 46.0443 26.0127 46.9937 25.9177 47.6582C25.7278 48.3228 25.538 48.7975 25.3481 48.9873C25.0633 49.2722 24.7785 49.462 24.2089 49.6519C23.7342 49.8418 23.1646 50.0316 22.5 50.2215C21.8354 50.4114 21.1709 50.5063 20.4114 50.6013C19.6519 50.6962 18.8924 50.6962 18.1329 50.6962C16.0443 50.6962 14.2405 50.4114 12.7215 49.9367C11.2025 49.3671 9.96835 48.6076 8.92405 47.4684C7.87975 46.3291 7.21519 45 6.74051 43.2911C6.26582 41.5823 6.07595 39.6835 6.07595 37.4051L6.07595 18.4177L1.61392 18.4177C1.0443 18.4177 0.664557 18.1329 0.379747 17.4684C0.0949367 16.8038 0 15.7595 0 14.2405C0 13.481 0 12.7215 0.0949367 12.2468C0.189873 11.7722 0.28481 11.2975 0.379747 10.9177C0.474684 10.6329 0.664557 10.3481 0.85443 10.2532C1.0443 10.1582 1.32911 10.0633 1.61392 10.0633L5.98101 10.0633L5.98101 1.8038C5.98101 1.51899 6.07595 1.23418 6.17089 1.0443C6.36076 0.85443 6.64557 0.664557 7.02532 0.474684C7.40506 0.28481 7.97468 0.189873 8.63924 0.0949367C9.3038 -1.34913e-14 10.1582 0 11.1076 0C12.1519 0 13.0063 0 13.6709 0.0949367C14.3354 0.189873 14.9051 0.28481 15.2848 0.474684C15.6646 0.664557 15.9494 0.85443 16.1392 1.0443C16.3291 1.23418 16.4241 1.51899 16.4241 1.8038L16.4241 10.0633L24.4937 10.0633C24.7785 10.0633 24.9684 10.1582 25.2532 10.2532C25.538 10.3481 25.6329 10.6329 25.7278 10.9177C25.8228 11.2025 26.0127 11.6772 26.0127 12.2468C26.0127 12.8165 26.1076 13.481 26.1076 14.2405C26.1076 15.7595 26.0127 16.8987 25.7278 17.4684C25.443 18.038 25.0633 18.4177 24.4937 18.4177L16.4241 18.4177L16.4241 35.7911C16.4241 37.7848 16.7089 39.3038 17.3734 40.3481C18.038 41.3924 19.1772 41.8671 20.7911 41.8671C21.3608 41.8671 21.8354 41.7721 22.3101 41.6772C22.7848 41.5823 23.1646 41.4873 23.4494 41.2975C23.8291 41.2025 24.1139 41.1076 24.3038 40.9177C24.4937 40.8228 24.7785 40.7278 24.9684 40.7278C25.1582 40.7278 25.2532 40.8228 25.443 40.9177C25.6329 41.0127 25.7278 41.2025 25.8228 41.4873C25.9177 41.7721 26.0127 42.1519 26.0127 42.6266C26.1076 43.3861 26.1076 44.0506 26.1076 44.8101Z"/>
	</g>
	<defs>
		<clipPath id="clip_2">
			<rect x="-382.13086" y="-1030.45" width="5745.6001" height="23237.76" clip-rule="evenodd"/>
		</clipPath>
	</defs>
	<g clip-path="url(#clip_2)">
		<path fill="rgb(143,30,47)" stroke="none" transform="matrix(3.99 0 0 3.99 435.77 16.0159)" d="M35.6013 56.4873C35.6013 56.7721 35.5063 56.962 35.3165 57.2468C35.1266 57.4367 34.8418 57.6266 34.462 57.7215C34.0823 57.8165 33.5127 58.0063 32.8481 58.0063C32.1835 58.1013 31.3291 58.1013 30.3797 58.1013C29.3354 58.1013 28.481 58.1013 27.8165 58.0063C27.1519 57.9114 26.5823 57.8165 26.2025 57.7215C25.8228 57.6266 25.538 57.4367 25.3481 57.2468C25.1582 57.057 25.0633 56.7721 25.0633 56.4873L25.0633 35.3165C25.0633 33.5127 24.9684 32.0886 24.6835 31.0443C24.3987 30 24.019 29.1456 23.5443 28.3861C23.0696 27.6266 22.4051 27.057 21.6456 26.6772C20.8861 26.2975 19.9367 26.1076 18.8924 26.1076C17.5633 26.1076 16.2342 26.5823 14.9051 27.5316C13.5759 28.481 12.1519 29.9051 10.6329 31.8038L10.6329 56.4873C10.6329 56.7721 10.538 56.962 10.3481 57.2468C10.1582 57.5316 9.87342 57.6266 9.49367 57.7215C9.11392 57.8165 8.5443 58.0063 7.87975 58.0063C7.21519 58.0063 6.36076 58.1013 5.31646 58.1013C4.27215 58.1013 3.41772 58.1013 2.75316 58.0063C2.08861 57.9114 1.51899 57.8165 1.13924 57.7215C0.759494 57.6266 0.474684 57.4367 0.28481 57.2468C0.0949367 57.057 0 56.7721 0 56.4873L0 1.8038C0 1.51899 0.0949367 1.23418 0.28481 1.0443C0.474684 0.85443 0.759494 0.664557 1.13924 0.474684C1.51899 0.28481 2.08861 0.189873 2.75316 0.0949367C3.41772 -1.34913e-14 4.27215 0 5.31646 0C6.36076 0 7.21519 0 7.87975 0.0949367C8.5443 0.189873 9.11392 0.28481 9.49367 0.474684C9.87342 0.664557 10.1582 0.85443 10.3481 1.0443C10.538 1.23418 10.6329 1.51899 10.6329 1.8038L10.6329 22.3101C12.4367 20.5063 14.2405 19.1772 16.1392 18.3228C18.038 17.4684 19.9367 16.9937 22.0253 16.9937C24.5886 16.9937 26.6772 17.3734 28.3861 18.2278C30.0949 19.0823 31.519 20.2215 32.5633 21.6456C33.6076 23.0696 34.3671 24.7785 34.8418 26.6772C35.3165 28.5759 35.5063 30.9494 35.5063 33.7025L35.6013 56.4873L35.6013 56.4873C35.6013 56.7721 35.5063 56.962 35.3165 57.2468C35.1266 57.4367 34.8418 57.6266 34.462 57.7215C34.0823 57.8165 33.5127 58.0063 32.8481 58.0063C32.1835 58.1013 31.3291 58.1013 30.3797 58.1013C29.3354 58.1013 28.481 58.1013 27.8165 58.0063C27.1519 57.9114 26.5823 57.8165 26.2025 57.7215C25.8228 57.6266 25.538 57.4367 25.3481 57.2468C25.1582 57.057 25.0633 56.7721 25.0633 56.4873L25.0633 35.3165C25.0633 33.5127 24.9684 32.0886 24.6835 31.0443C24.3987 30 24.019 29.1456 23.5443 28.3861C23.0696 27.6266 22.4051 27.057 21.6456 26.6772C20.8861 26.2975 19.9367 26.1076 18.8924 26.1076C17.5633 26.1076 16.2342 26.5823 14.9051 27.5316C13.5759 28.481 12.1519 29.9051 10.6329 31.8038L10.6329 56.4873C10.6329 56.7721 10.538 56.962 10.3481 57.2468C10.1582 57.5316 9.87342 57.6266 9.49367 57.7215C9.11392 57.8165 8.5443 58.0063 7.87975 58.0063C7.21519 58.0063 6.36076 58.1013 5.31646 58.1013C4.27215 58.1013 3.41772 58.1013 2.75316 58.0063C2.08861 57.9114 1.51899 57.8165 1.13924 57.7215C0.759494 57.6266 0.474684 57.4367 0.28481 57.2468C0.0949367 57.057 0 56.7721 0 56.4873L0 1.8038C0 1.51899 0.0949367 1.23418 0.28481 1.0443C0.474684 0.85443 0.759494 0.664557 1.13924 0.474684C1.51899 0.28481 2.08861 0.189873 2.75316 0.0949367C3.41772 -1.34913e-14 4.27215 0 5.31646 0C6.36076 0 7.21519 0 7.87975 0.0949367C8.5443 0.189873 9.11392 0.28481 9.49367 0.474684C9.87342 0.664557 10.1582 0.85443 10.3481 1.0443C10.538 1.23418 10.6329 1.51899 10.6329 1.8038L10.6329 22.3101C12.4367 20.5063 14.2405 19.1772 16.1392 18.3228C18.038 17.4684 19.9367 16.9937 22.0253 16.9937C24.5886 16.9937 26.6772 17.3734 28.3861 18.2278C30.0949 19.0823 31.519 20.2215 32.5633 21.6456C33.6076 23.0696 34.3671 24.7785 34.8418 26.6772C35.3165 28.5759 35.5063 30.9494 35.5063 33.7025L35.6013 56.4873L35.6013 56.4873Z"/>
	</g>
	<defs>
		<clipPath id="clip_3">
			<rect x="-382.13086" y="-1030.45" width="5745.6001" height="23237.76" clip-rule="evenodd"/>
		</clipPath>
	</defs>
	<g clip-path="url(#clip_3)">
		<path fill="rgb(143,30,47)" stroke="none" transform="matrix(3.99 0 0 3.99 609.639 84.1994)" d="M38.5443 29.1456C39.3987 26.5823 39.7785 23.6392 39.7785 20.5063C39.7785 17.1835 39.3987 14.3354 38.5443 11.7722C37.7848 9.20886 36.6456 7.12025 35.0316 5.31646C33.4177 3.51266 31.424 2.18354 28.9557 1.32911C26.4873 0.474684 23.6392 0 20.3165 0C16.8987 0 13.9557 0.474684 11.3924 1.51899C8.82911 2.56329 6.74051 3.98734 5.03165 5.88608C3.32278 7.78481 2.08861 9.96835 1.23418 12.6266C0.379747 15.1899 0 18.1329 0 21.2658C0 24.4937 0.28481 27.4367 1.13924 30C1.99367 32.5633 3.13291 34.7468 4.74684 36.4557C6.36076 38.1646 8.35443 39.4937 10.8228 40.443C13.2911 41.2975 16.1392 41.7722 19.462 41.7722C22.8797 41.7722 25.8228 41.2975 28.3861 40.2532C30.9494 39.2089 33.038 37.7848 34.7468 35.8861C36.4557 33.9873 37.6899 31.7089 38.5443 29.1456ZM28.5759 15.9494C28.8608 17.4684 29.0506 19.1772 29.0506 20.981C29.0506 22.8797 28.8608 24.7785 28.481 26.2975C28.1013 27.8165 27.5316 29.1456 26.7722 30.1899C26.0127 31.2342 25.0633 32.0886 23.924 32.6582C22.7848 33.2278 21.4557 33.5127 19.8418 33.5127C18.038 33.5127 16.6139 33.2278 15.4747 32.5633C14.3354 31.8987 13.481 31.0443 12.7215 29.9051C11.962 28.7658 11.4873 27.4367 11.2025 25.9177C10.9177 24.3987 10.7278 22.6899 10.7278 20.8861C10.7278 18.9873 10.9177 17.1835 11.2975 15.6646C11.6772 14.0506 12.2468 12.8165 13.0063 11.6772C13.7658 10.6329 14.7152 9.77848 15.8544 9.20886C16.9937 8.63924 18.4177 8.35443 19.9367 8.35443C21.7405 8.35443 23.1646 8.63924 24.3038 9.3038C25.443 9.96835 26.2975 10.8228 27.057 11.962C27.8165 13.1013 28.2911 14.4304 28.5759 15.9494Z" fill-rule="evenodd"/>
	</g>
	<defs>
		<clipPath id="clip_4">
			<rect x="-382.13086" y="-1030.45" width="5745.6001" height="23237.76" clip-rule="evenodd"/>
		</clipPath>
	</defs>
	<g clip-path="url(#clip_4)">
		<path fill="rgb(143,30,47)" stroke="none" transform="matrix(3.99 0 0 3.99 800.553 83.8206)" d="M35.6013 39.4937C35.6013 39.7785 35.5063 39.9684 35.3165 40.2532C35.1266 40.538 34.8418 40.6329 34.462 40.7278C34.0823 40.8228 33.5127 41.0127 32.8481 41.0127C32.1835 41.1076 31.3291 41.1076 30.3797 41.1076C29.3354 41.1076 28.481 41.1076 27.8165 41.0127C27.1519 40.9177 26.5823 40.8228 26.2025 40.7278C25.8228 40.6329 25.538 40.443 25.3481 40.2532C25.1582 40.0633 25.0633 39.7785 25.0633 39.4937L25.0633 18.3228C25.0633 16.519 24.9684 15.0949 24.6835 14.0506C24.3987 13.0063 24.019 12.1519 23.5443 11.3924C23.0696 10.6329 22.4051 10.0633 21.6456 9.68354C20.8861 9.3038 19.9367 9.11392 18.8924 9.11392C17.5633 9.11392 16.2342 9.58861 14.9051 10.538C13.5759 11.4873 12.1519 12.9114 10.6329 14.8101L10.6329 39.4937C10.6329 39.7785 10.538 39.9684 10.3481 40.2532C10.1582 40.538 9.87342 40.6329 9.49367 40.7278C9.11392 40.8228 8.5443 41.0127 7.87975 41.0127C7.21519 41.1076 6.36076 41.1076 5.31646 41.1076C4.27215 41.1076 3.41772 41.1076 2.75316 41.0127C2.08861 40.9177 1.51899 40.8228 1.13924 40.7278C0.759494 40.6329 0.474684 40.443 0.28481 40.2532C0.0949367 40.0633 0 39.7785 0 39.4937L0 2.46835C0 2.18354 0.0949367 1.99367 0.189873 1.70886C0.28481 1.42405 0.56962 1.32911 0.949367 1.23418C1.32911 1.13924 1.8038 0.949367 2.37342 0.949367C2.94304 0.85443 3.70253 0.85443 4.55696 0.85443C5.41139 0.85443 6.17089 0.85443 6.74051 0.949367C7.31013 1.0443 7.78481 1.13924 8.06962 1.23418C8.35443 1.32911 8.63924 1.51899 8.73418 1.70886C8.82911 1.89873 8.92405 2.18354 8.92405 2.46835L8.92405 6.74051C11.0127 4.55696 13.1013 2.8481 15.1899 1.70886C17.2785 0.56962 19.557 0 21.8354 0C24.3987 0 26.4873 0.379747 28.1962 1.23418C29.9051 2.08861 31.3291 3.22785 32.3734 4.6519C33.4177 6.07595 34.1772 7.78481 34.6519 9.68354C35.1266 11.5823 35.3165 13.8608 35.3165 16.6139L35.3165 39.4937L35.6013 39.4937C35.6013 39.7785 35.5063 39.9684 35.3165 40.2532C35.1266 40.538 34.8418 40.6329 34.462 40.7278C34.0823 40.8228 33.5127 41.0127 32.8481 41.0127C32.1835 41.1076 31.3291 41.1076 30.3797 41.1076C29.3354 41.1076 28.481 41.1076 27.8165 41.0127C27.1519 40.9177 26.5823 40.8228 26.2025 40.7278C25.8228 40.6329 25.538 40.443 25.3481 40.2532C25.1582 40.0633 25.0633 39.7785 25.0633 39.4937L25.0633 18.3228C25.0633 16.519 24.9684 15.0949 24.6835 14.0506C24.3987 13.0063 24.019 12.1519 23.5443 11.3924C23.0696 10.6329 22.4051 10.0633 21.6456 9.68354C20.8861 9.3038 19.9367 9.11392 18.8924 9.11392C17.5633 9.11392 16.2342 9.58861 14.9051 10.538C13.5759 11.4873 12.1519 12.9114 10.6329 14.8101L10.6329 39.4937C10.6329 39.7785 10.538 39.9684 10.3481 40.2532C10.1582 40.538 9.87342 40.6329 9.49367 40.7278C9.11392 40.8228 8.5443 41.0127 7.87975 41.0127C7.21519 41.1076 6.36076 41.1076 5.31646 41.1076C4.27215 41.1076 3.41772 41.1076 2.75316 41.0127C2.08861 40.9177 1.51899 40.8228 1.13924 40.7278C0.759494 40.6329 0.474684 40.443 0.28481 40.2532C0.0949367 40.0633 0 39.7785 0 39.4937L0 2.46835C0 2.18354 0.0949367 1.99367 0.189873 1.70886C0.28481 1.42405 0.56962 1.32911 0.949367 1.23418C1.32911 1.13924 1.8038 0.949367 2.37342 0.949367C2.94304 0.85443 3.70253 0.85443 4.55696 0.85443C5.41139 0.85443 6.17089 0.85443 6.74051 0.949367C7.31013 1.0443 7.78481 1.13924 8.06962 1.23418C8.35443 1.32911 8.63924 1.51899 8.73418 1.70886C8.82911 1.89873 8.92405 2.18354 8.92405 2.46835L8.92405 6.74051C11.0127 4.55696 13.1013 2.8481 15.1899 1.70886C17.2785 0.56962 19.557 0 21.8354 0C24.3987 0 26.4873 0.379747 28.1962 1.23418C29.9051 2.08861 31.3291 3.22785 32.3734 4.6519C33.4177 6.07595 34.1772 7.78481 34.6519 9.68354C35.1266 11.5823 35.3165 13.8608 35.3165 16.6139L35.3165 39.4937L35.6013 39.4937Z"/>
	</g>
</svg>
