<svg xmlns="http://www.w3.org/2000/svg" width="60" height="60" viewBox="0 0 60 60">
    <g fill="none" fill-rule="evenodd">
        <path d="M0 0h60v60H0z"/>
        <circle cx="30" cy="30" r="29" stroke="#FFF" stroke-width="2"/>
        <path fill="#FFF" d="M41.627 22.971a6.15 6.15 0 0 0 2.581-3.426 11.393 11.393 0 0 1-3.731 1.503c-1.07-1.205-2.597-1.957-4.288-1.957-3.244 0-5.873 2.774-5.873 6.196 0 .485.049.959.15 1.41-4.881-.258-9.21-2.722-12.109-6.473a6.442 6.442 0 0 0-.795 3.116c0 2.149 1.037 4.046 2.614 5.159a5.665 5.665 0 0 1-2.663-.775v.076c0 3.003 2.024 5.508 4.715 6.076a5.469 5.469 0 0 1-1.55.218c-.378 0-.748-.038-1.104-.11.746 2.46 2.916 4.254 5.488 4.302-2.012 1.663-4.545 2.652-7.297 2.652-.474 0-.942-.026-1.401-.085 2.6 1.757 5.688 2.783 9.006 2.783 10.807 0 16.714-9.441 16.714-17.63 0-.27-.004-.537-.015-.8A12.28 12.28 0 0 0 45 21.995a11.26 11.26 0 0 1-3.373.975z"/>
    </g>
</svg>
